<svg width="274" height="86" viewBox="0 0 274 86" fill="none" xmlns="http://www.w3.org/2000/svg">
<path d="M10.5402 42.1794V60.8259H6.6725V15.0428H22.269C27.0275 15.0428 30.7799 16.2586 33.5261 18.6904C36.2932 21.1221 37.6767 24.4657 37.6767 28.7211C37.6767 33.0185 36.3456 36.3412 33.6833 38.689C31.042 41.0159 27.2057 42.1794 22.1746 42.1794H10.5402ZM10.5402 38.9091H22.269C26.0213 38.9091 28.8828 38.0182 30.8533 36.2364C32.8238 34.4545 33.8091 31.9704 33.8091 28.784C33.8091 25.6186 32.8238 23.1031 30.8533 21.2374C28.9037 19.3507 26.1261 18.3864 22.5205 18.3445H10.5402V38.9091ZM66.5742 60.8259C66.1969 59.7568 65.9558 58.1741 65.851 56.0778C64.5303 57.7968 62.8428 59.1279 60.7884 60.0713C58.755 60.9936 56.5958 61.4548 54.3109 61.4548C51.0406 61.4548 48.3888 60.5429 46.3554 58.7191C44.343 56.8954 43.3367 54.5894 43.3367 51.8014C43.3367 48.4892 44.7098 45.8688 47.456 43.9403C50.2231 42.0117 54.0698 41.0474 58.9961 41.0474H65.8195V37.1797C65.8195 34.748 65.0649 32.8404 63.5555 31.4568C62.0672 30.0523 59.887 29.35 57.0151 29.35C54.3947 29.35 52.225 30.0208 50.5061 31.3625C48.7871 32.7041 47.9276 34.3182 47.9276 36.2049L44.1543 36.1735C44.1543 33.4692 45.4121 31.1319 47.9276 29.1614C50.4432 27.1699 53.5352 26.1741 57.2037 26.1741C60.998 26.1741 63.9853 27.1279 66.1654 29.0356C68.3665 30.9222 69.4985 33.5636 69.5614 36.9596V53.0591C69.5614 56.3503 69.9073 58.8135 70.5991 60.4486V60.8259H66.5742ZM54.7511 58.1217C57.2666 58.1217 59.5097 57.5138 61.4802 56.2979C63.4717 55.0821 64.9181 53.4574 65.8195 51.424V43.9403H59.0904C55.338 43.9822 52.4032 44.674 50.286 46.0156C48.1687 47.3363 47.1101 49.16 47.1101 51.4869C47.1101 53.3946 47.8123 54.9773 49.2169 56.235C50.6423 57.4928 52.4871 58.1217 54.7511 58.1217ZM106.98 44.1604C106.98 49.464 105.806 53.6776 103.459 56.801C101.111 59.9036 97.9662 61.4548 94.0252 61.4548C89.3714 61.4548 85.8077 59.8197 83.3341 56.5495V73.9068H79.5922V26.803H83.0825L83.2712 31.614C85.7239 27.9874 89.2771 26.1741 93.9309 26.1741C97.9977 26.1741 101.184 27.7149 103.49 30.7965C105.817 33.878 106.98 38.1545 106.98 43.6258V44.1604ZM103.207 43.5C103.207 39.1607 102.316 35.7332 100.534 33.2177C98.7524 30.7021 96.2682 29.4444 93.0819 29.4444C90.7759 29.4444 88.7949 29.9999 87.1389 31.1109C85.4828 32.222 84.2145 33.8361 83.3341 35.9534V52.273C84.2355 54.2226 85.5247 55.711 87.2018 56.7381C88.8788 57.7653 90.8598 58.2789 93.1448 58.2789C96.3102 58.2789 98.7733 57.0211 100.534 54.5056C102.316 51.9691 103.207 48.3006 103.207 43.5ZM128.52 61.4548C125.627 61.4548 123.007 60.7421 120.659 59.3166C118.332 57.8911 116.518 55.9101 115.219 53.3736C113.919 50.8161 113.269 47.9547 113.269 44.7893V43.4371C113.269 40.1669 113.898 37.2216 115.156 34.6012C116.435 31.9809 118.206 29.9265 120.47 28.4381C122.734 26.9288 125.187 26.1741 127.828 26.1741C131.958 26.1741 135.228 27.5891 137.639 30.4191C140.07 33.2282 141.286 37.0749 141.286 41.9593V44.066H117.011V44.7893C117.011 48.6464 118.112 51.8643 120.313 54.4427C122.535 57.0002 125.323 58.2789 128.677 58.2789C130.689 58.2789 132.461 57.9121 133.991 57.1784C135.542 56.4447 136.947 55.2707 138.205 53.6566L140.563 55.4489C137.796 59.4529 133.781 61.4548 128.52 61.4548ZM127.828 29.3815C124.998 29.3815 122.608 30.4191 120.659 32.4945C118.73 34.5698 117.556 37.3579 117.137 40.8587H137.544V40.4499C137.44 37.1797 136.507 34.5174 134.746 32.463C132.985 30.4087 130.679 29.3815 127.828 29.3815ZM164.335 30.0104C163.538 29.8636 162.689 29.7902 161.788 29.7902C159.44 29.7902 157.449 30.4506 155.814 31.7712C154.199 33.071 153.046 34.9681 152.355 37.4627V60.8259H148.613V26.803H152.292L152.355 32.2115C154.346 28.1866 157.543 26.1741 161.945 26.1741C162.993 26.1741 163.821 26.3104 164.429 26.5829L164.335 30.0104ZM197.666 44.1604C197.666 49.464 196.492 53.6776 194.144 56.801C191.797 59.9036 188.652 61.4548 184.711 61.4548C180.057 61.4548 176.494 59.8197 174.02 56.5495V73.9068H170.278V26.803H173.768L173.957 31.614C176.41 27.9874 179.963 26.1741 184.617 26.1741C188.684 26.1741 191.87 27.7149 194.176 30.7965C196.503 33.878 197.666 38.1545 197.666 43.6258V44.1604ZM193.893 43.5C193.893 39.1607 193.002 35.7332 191.22 33.2177C189.438 30.7021 186.954 29.4444 183.768 29.4444C181.462 29.4444 179.481 29.9999 177.825 31.1109C176.169 32.222 174.9 33.8361 174.02 35.9534V52.273C174.921 54.2226 176.211 55.711 177.888 56.7381C179.565 57.7653 181.546 58.2789 183.831 58.2789C186.996 58.2789 189.459 57.0211 191.22 54.5056C193.002 51.9691 193.893 48.3006 193.893 43.5ZM203.955 43.3114C203.955 40.0411 204.584 37.0958 205.842 34.4755C207.12 31.8551 208.913 29.8217 211.219 28.3752C213.546 26.9078 216.176 26.1741 219.111 26.1741C223.639 26.1741 227.308 27.7673 230.117 30.9537C232.926 34.1191 234.33 38.3222 234.33 43.5629V44.349C234.33 47.6402 233.691 50.6065 232.412 53.2478C231.154 55.8682 229.373 57.8911 227.067 59.3166C224.761 60.7421 222.13 61.4548 219.174 61.4548C214.667 61.4548 210.999 59.8721 208.169 56.7067C205.36 53.5203 203.955 49.3068 203.955 44.066V43.3114ZM207.728 44.349C207.728 48.4158 208.777 51.7594 210.873 54.3798C212.99 56.9792 215.757 58.2789 219.174 58.2789C222.57 58.2789 225.316 56.9792 227.413 54.3798C229.53 51.7594 230.588 48.311 230.588 44.0346V43.3114C230.588 40.712 230.106 38.3327 229.142 36.1735C228.178 34.0143 226.826 32.3477 225.086 31.1738C223.346 29.9789 221.354 29.3815 219.111 29.3815C215.757 29.3815 213.022 30.7021 210.904 33.3435C208.787 35.9638 207.728 39.4018 207.728 43.6573V44.349ZM240.619 43.5C240.619 38.2174 241.793 34.0143 244.141 30.8908C246.51 27.7464 249.717 26.1741 253.763 26.1741C258.354 26.1741 261.855 27.9874 264.266 31.614V12.5272H268.007V60.8259H264.486L264.328 56.2979C261.918 59.7359 258.375 61.4548 253.7 61.4548C249.78 61.4548 246.615 59.8826 244.204 56.7381C241.814 53.5727 240.619 49.3068 240.619 43.9403V43.5ZM244.424 44.1604C244.424 48.4997 245.294 51.9271 247.034 54.4427C248.774 56.9373 251.227 58.1846 254.392 58.1846C259.025 58.1846 262.316 56.1407 264.266 52.0529V36.0791C262.316 31.656 259.046 29.4444 254.455 29.4444C251.289 29.4444 248.826 30.6917 247.065 33.1862C245.305 35.6599 244.424 39.3179 244.424 44.1604Z" fill="black"/>
<path opacity="0.8" d="M208.68 75.0715C208.68 76.8081 208.296 78.1878 207.527 79.2105C206.758 80.2264 205.725 80.7343 204.428 80.7343C202.877 80.7343 201.703 80.1577 200.907 79.0046L200.855 80.5284H199.702V64.7138H200.928V71.0046C201.71 69.7897 202.87 69.1822 204.408 69.1822C205.725 69.1822 206.765 69.6867 207.527 70.6957C208.296 71.6979 208.68 73.0947 208.68 74.8862V75.0715ZM207.445 74.8553C207.445 73.3864 207.16 72.2538 206.59 71.4576C206.021 70.6545 205.218 70.253 204.181 70.253C203.392 70.253 202.722 70.4486 202.173 70.8399C201.624 71.2243 201.209 71.7905 200.928 72.5387V77.5631C201.545 78.9634 202.637 79.6635 204.202 79.6635C205.218 79.6635 206.01 79.262 206.58 78.4589C207.157 77.6558 207.445 76.4546 207.445 74.8553ZM214.817 78.7575L218.07 69.3881H219.399L214.642 82.4228L214.395 82.9994C213.784 84.3516 212.84 85.0277 211.563 85.0277C211.268 85.0277 210.952 84.9797 210.616 84.8836L210.606 83.8643L211.244 83.9261C211.848 83.9261 212.335 83.775 212.706 83.473C213.084 83.1779 213.403 82.6665 213.664 81.9389L214.209 80.4357L210.009 69.3881H211.357L214.817 78.7575ZM230.106 73.0844L227.996 75.1642V80.5284H226.729V65.5374H227.996V73.6198L235.676 65.5374H237.272L230.992 72.2092L237.756 80.5284H236.212L230.106 73.0844ZM244.891 70.4383C244.631 70.3903 244.353 70.3663 244.057 70.3663C243.289 70.3663 242.637 70.5825 242.101 71.0149C241.573 71.4405 241.195 72.0617 240.969 72.8785V80.5284H239.743V69.3881H240.948L240.969 71.159C241.621 69.8412 242.667 69.1822 244.109 69.1822C244.452 69.1822 244.723 69.2268 244.922 69.3161L244.891 70.4383ZM250.956 80.7343C250.008 80.7343 249.15 80.5009 248.382 80.0342C247.62 79.5674 247.026 78.9188 246.6 78.0882C246.175 77.2508 245.962 76.3139 245.962 75.2774V74.8347C245.962 73.7639 246.168 72.7995 246.58 71.9415C246.999 71.0835 247.579 70.4109 248.32 69.9235C249.061 69.4293 249.864 69.1822 250.729 69.1822C252.081 69.1822 253.152 69.6455 253.942 70.5722C254.738 71.4919 255.136 72.7515 255.136 74.3508V75.0406H247.187V75.2774C247.187 76.5404 247.548 77.594 248.268 78.4383C248.996 79.2757 249.909 79.6944 251.007 79.6944C251.666 79.6944 252.246 79.5743 252.747 79.334C253.255 79.0938 253.715 78.7094 254.127 78.1809L254.899 78.7678C253.993 80.0788 252.679 80.7343 250.956 80.7343ZM250.729 70.2324C249.803 70.2324 249.02 70.5722 248.382 71.2517C247.75 71.9312 247.366 72.8442 247.229 73.9904H253.911V73.8566C253.876 72.7858 253.571 71.9141 252.994 71.2414C252.418 70.5687 251.663 70.2324 250.729 70.2324ZM259.45 66.5362V69.3881H261.756V70.3971H259.45V77.8205C259.45 78.4383 259.56 78.8982 259.779 79.2002C260.006 79.5022 260.38 79.6532 260.902 79.6532C261.108 79.6532 261.44 79.6189 261.9 79.5503L261.952 80.5593C261.629 80.676 261.19 80.7343 260.634 80.7343C259.79 80.7343 259.175 80.4906 258.791 80.0033C258.407 79.5091 258.214 78.7849 258.214 77.8308V70.3971H256.165V69.3881H258.214V66.5362H259.45ZM270.981 77.697C270.981 77.0861 270.734 76.5953 270.24 76.2247C269.753 75.854 269.015 75.5657 268.026 75.3598C267.038 75.147 266.269 74.9068 265.72 74.6391C265.178 74.3645 264.773 74.0316 264.505 73.6404C264.244 73.2491 264.114 72.7755 264.114 72.2195C264.114 71.3409 264.481 70.6168 265.216 70.0471C265.95 69.4705 266.89 69.1822 268.037 69.1822C269.279 69.1822 270.274 69.4911 271.023 70.1089C271.778 70.7197 272.155 71.5194 272.155 72.5078H270.92C270.92 71.8557 270.645 71.3135 270.096 70.8811C269.554 70.4486 268.867 70.2324 268.037 70.2324C267.227 70.2324 266.575 70.4143 266.08 70.7781C265.593 71.135 265.349 71.6018 265.349 72.1783C265.349 72.7343 265.552 73.1668 265.957 73.4756C266.369 73.7777 267.114 74.0556 268.191 74.3096C269.276 74.5636 270.086 74.8347 270.621 75.123C271.163 75.4113 271.565 75.7579 271.826 76.1629C272.086 76.5679 272.217 77.0586 272.217 77.6352C272.217 78.5756 271.836 79.3272 271.074 79.89C270.319 80.4529 269.331 80.7343 268.109 80.7343C266.811 80.7343 265.758 80.422 264.948 79.7974C264.145 79.1659 263.743 78.3697 263.743 77.4087H264.979C265.027 78.1294 265.329 78.6923 265.885 79.0972C266.448 79.4954 267.189 79.6944 268.109 79.6944C268.967 79.6944 269.66 79.5056 270.189 79.1281C270.717 78.7506 270.981 78.2736 270.981 77.697Z" fill="black"/>
</svg>
