<svg width="200" height="200" viewBox="0 0 200 200" fill="none" xmlns="http://www.w3.org/2000/svg">
<circle cx="100" cy="100" r="99.5" fill="white" stroke="black"/>
<path d="M80.3569 106.542V142H73.0022V54.9393H102.66C111.709 54.9393 118.845 57.2513 124.067 61.8754C129.329 66.4996 131.959 72.8577 131.959 80.9499C131.959 89.1218 129.428 95.4401 124.366 99.9047C119.343 104.33 112.048 106.542 102.481 106.542H80.3569ZM80.3569 100.323H102.66C109.796 100.323 115.237 98.6291 118.984 95.2407C122.731 91.8524 124.605 87.1286 124.605 81.0695C124.605 75.0502 122.731 70.2666 118.984 66.7188C115.277 63.1311 109.995 61.2974 103.139 61.2177H80.3569V100.323Z" fill="black"/>
</svg>
